<mxfile host="app.diagrams.net" modified="2022-08-15T16:59:02.273Z" agent="5.0 (Windows NT 10.0; Win64; x64) AppleWebKit/537.36 (KHTML, like Gecko) Chrome/104.0.5112.81 Safari/537.36 Edg/104.0.1293.54" etag="uIBXtLv06__jO_wBvyF3" version="20.2.3" type="github">
  <diagram id="Vw7fn27wdTtEGHEtweep" name="Page-1">
    <mxGraphModel dx="2147" dy="1952" grid="1" gridSize="10" guides="1" tooltips="1" connect="1" arrows="1" fold="1" page="1" pageScale="1" pageWidth="827" pageHeight="1169" math="0" shadow="0">
      <root>
        <mxCell id="0" />
        <mxCell id="1" parent="0" />
        <mxCell id="UBoLiEuFsDpJewt4Z_ZF-12" style="edgeStyle=orthogonalEdgeStyle;rounded=0;orthogonalLoop=1;jettySize=auto;html=1;fontSize=18;" edge="1" parent="1" source="UBoLiEuFsDpJewt4Z_ZF-1" target="UBoLiEuFsDpJewt4Z_ZF-2">
          <mxGeometry relative="1" as="geometry" />
        </mxCell>
        <mxCell id="UBoLiEuFsDpJewt4Z_ZF-1" value="&lt;font style=&quot;font-size: 18px;&quot;&gt;DB::NewIterator&lt;/font&gt;" style="rounded=1;whiteSpace=wrap;html=1;" vertex="1" parent="1">
          <mxGeometry x="70" y="-1130" width="240" height="60" as="geometry" />
        </mxCell>
        <mxCell id="UBoLiEuFsDpJewt4Z_ZF-5" style="edgeStyle=orthogonalEdgeStyle;rounded=0;orthogonalLoop=1;jettySize=auto;html=1;entryX=0.5;entryY=0;entryDx=0;entryDy=0;fontSize=18;" edge="1" parent="1" source="UBoLiEuFsDpJewt4Z_ZF-2" target="UBoLiEuFsDpJewt4Z_ZF-3">
          <mxGeometry relative="1" as="geometry" />
        </mxCell>
        <mxCell id="UBoLiEuFsDpJewt4Z_ZF-13" style="edgeStyle=orthogonalEdgeStyle;rounded=0;orthogonalLoop=1;jettySize=auto;html=1;fontSize=18;" edge="1" parent="1" source="UBoLiEuFsDpJewt4Z_ZF-2" target="UBoLiEuFsDpJewt4Z_ZF-6">
          <mxGeometry relative="1" as="geometry" />
        </mxCell>
        <mxCell id="UBoLiEuFsDpJewt4Z_ZF-2" value="&lt;font style=&quot;font-size: 18px;&quot;&gt;DBImpl::NewIterator&lt;/font&gt;" style="rounded=1;whiteSpace=wrap;html=1;" vertex="1" parent="1">
          <mxGeometry x="70" y="-1020" width="240" height="60" as="geometry" />
        </mxCell>
        <mxCell id="UBoLiEuFsDpJewt4Z_ZF-3" value="&lt;font style=&quot;font-size: 18px;&quot;&gt;NewDBIterator&lt;/font&gt;" style="rounded=1;whiteSpace=wrap;html=1;" vertex="1" parent="1">
          <mxGeometry x="500" y="-910" width="240" height="60" as="geometry" />
        </mxCell>
        <mxCell id="UBoLiEuFsDpJewt4Z_ZF-4" value="&lt;font style=&quot;font-size: 18px;&quot;&gt;DBIterator&lt;/font&gt;" style="rounded=1;whiteSpace=wrap;html=1;" vertex="1" parent="1">
          <mxGeometry x="500" y="-800" width="240" height="60" as="geometry" />
        </mxCell>
        <mxCell id="UBoLiEuFsDpJewt4Z_ZF-19" style="edgeStyle=orthogonalEdgeStyle;rounded=0;orthogonalLoop=1;jettySize=auto;html=1;entryX=1;entryY=0.5;entryDx=0;entryDy=0;fontSize=18;" edge="1" parent="1" source="UBoLiEuFsDpJewt4Z_ZF-6" target="UBoLiEuFsDpJewt4Z_ZF-18">
          <mxGeometry relative="1" as="geometry" />
        </mxCell>
        <mxCell id="UBoLiEuFsDpJewt4Z_ZF-6" value="&lt;font style=&quot;font-size: 18px;&quot;&gt;NewIteratorImpl&lt;/font&gt;" style="rounded=1;whiteSpace=wrap;html=1;" vertex="1" parent="1">
          <mxGeometry x="70" y="-910" width="240" height="60" as="geometry" />
        </mxCell>
        <mxCell id="UBoLiEuFsDpJewt4Z_ZF-7" value="&lt;font style=&quot;font-size: 18px;&quot;&gt;DBIterator + Arena&lt;br&gt;(ArenaWrappedDBIter)&lt;br&gt;&lt;/font&gt;" style="rounded=1;whiteSpace=wrap;html=1;" vertex="1" parent="1">
          <mxGeometry x="70" y="-800" width="240" height="60" as="geometry" />
        </mxCell>
        <mxCell id="UBoLiEuFsDpJewt4Z_ZF-11" value="&lt;ol&gt;&lt;li&gt;mem iterator&lt;/li&gt;&lt;li&gt;imm iterators&lt;/li&gt;&lt;li&gt;&lt;br&gt;&lt;/li&gt;&lt;li&gt;&lt;br&gt;&lt;/li&gt;&lt;/ol&gt;" style="text;strokeColor=none;fillColor=none;html=1;whiteSpace=wrap;verticalAlign=middle;overflow=hidden;fontSize=18;" vertex="1" parent="1">
          <mxGeometry x="455" y="-730" width="330" height="130" as="geometry" />
        </mxCell>
        <mxCell id="UBoLiEuFsDpJewt4Z_ZF-14" value="" style="shape=flexArrow;endArrow=classic;html=1;rounded=0;fontSize=18;exitX=0.5;exitY=1;exitDx=0;exitDy=0;entryX=0.5;entryY=0;entryDx=0;entryDy=0;" edge="1" parent="1" source="UBoLiEuFsDpJewt4Z_ZF-6" target="UBoLiEuFsDpJewt4Z_ZF-7">
          <mxGeometry width="50" height="50" relative="1" as="geometry">
            <mxPoint x="310" y="-810" as="sourcePoint" />
            <mxPoint x="360" y="-860" as="targetPoint" />
          </mxGeometry>
        </mxCell>
        <mxCell id="UBoLiEuFsDpJewt4Z_ZF-15" value="" style="shape=flexArrow;endArrow=classic;html=1;rounded=0;fontSize=18;exitX=0.5;exitY=1;exitDx=0;exitDy=0;entryX=0.5;entryY=0;entryDx=0;entryDy=0;" edge="1" parent="1">
          <mxGeometry width="50" height="50" relative="1" as="geometry">
            <mxPoint x="619.5799999999999" y="-850" as="sourcePoint" />
            <mxPoint x="619.5799999999999" y="-800" as="targetPoint" />
          </mxGeometry>
        </mxCell>
        <mxCell id="UBoLiEuFsDpJewt4Z_ZF-16" value="return" style="text;html=1;strokeColor=none;fillColor=none;align=center;verticalAlign=middle;whiteSpace=wrap;rounded=0;fontSize=18;" vertex="1" parent="1">
          <mxGeometry x="210" y="-840" width="60" height="30" as="geometry" />
        </mxCell>
        <mxCell id="UBoLiEuFsDpJewt4Z_ZF-17" value="return" style="text;html=1;strokeColor=none;fillColor=none;align=center;verticalAlign=middle;whiteSpace=wrap;rounded=0;fontSize=18;" vertex="1" parent="1">
          <mxGeometry x="640" y="-840" width="60" height="30" as="geometry" />
        </mxCell>
        <mxCell id="UBoLiEuFsDpJewt4Z_ZF-77" style="edgeStyle=orthogonalEdgeStyle;rounded=0;orthogonalLoop=1;jettySize=auto;html=1;entryX=0.5;entryY=0;entryDx=0;entryDy=0;fontSize=18;" edge="1" parent="1" source="UBoLiEuFsDpJewt4Z_ZF-18" target="UBoLiEuFsDpJewt4Z_ZF-22">
          <mxGeometry relative="1" as="geometry" />
        </mxCell>
        <mxCell id="UBoLiEuFsDpJewt4Z_ZF-18" value="&lt;font style=&quot;font-size: 18px;&quot;&gt;NewInternalIterator&lt;/font&gt;" style="rounded=1;whiteSpace=wrap;html=1;" vertex="1" parent="1">
          <mxGeometry x="-260" y="-910" width="240" height="60" as="geometry" />
        </mxCell>
        <mxCell id="UBoLiEuFsDpJewt4Z_ZF-20" value="mem allocate&lt;br&gt;good locality" style="text;html=1;strokeColor=none;fillColor=none;align=center;verticalAlign=middle;whiteSpace=wrap;rounded=0;fontSize=18;" vertex="1" parent="1">
          <mxGeometry x="60" y="-740" width="260" height="70" as="geometry" />
        </mxCell>
        <mxCell id="UBoLiEuFsDpJewt4Z_ZF-24" style="edgeStyle=orthogonalEdgeStyle;rounded=0;orthogonalLoop=1;jettySize=auto;html=1;fontSize=18;" edge="1" parent="1" source="UBoLiEuFsDpJewt4Z_ZF-22" target="UBoLiEuFsDpJewt4Z_ZF-23">
          <mxGeometry relative="1" as="geometry" />
        </mxCell>
        <mxCell id="UBoLiEuFsDpJewt4Z_ZF-22" value="&lt;font style=&quot;font-size: 18px;&quot;&gt;MergeIteratorBuilder&lt;/font&gt;" style="rounded=1;whiteSpace=wrap;html=1;" vertex="1" parent="1">
          <mxGeometry x="-413" y="-780" width="240" height="60" as="geometry" />
        </mxCell>
        <mxCell id="UBoLiEuFsDpJewt4Z_ZF-38" style="edgeStyle=orthogonalEdgeStyle;rounded=0;orthogonalLoop=1;jettySize=auto;html=1;entryX=0.5;entryY=0;entryDx=0;entryDy=0;fontSize=18;" edge="1" parent="1" source="UBoLiEuFsDpJewt4Z_ZF-23" target="UBoLiEuFsDpJewt4Z_ZF-30">
          <mxGeometry relative="1" as="geometry" />
        </mxCell>
        <mxCell id="UBoLiEuFsDpJewt4Z_ZF-39" style="edgeStyle=orthogonalEdgeStyle;rounded=0;orthogonalLoop=1;jettySize=auto;html=1;entryX=0.5;entryY=0;entryDx=0;entryDy=0;fontSize=18;" edge="1" parent="1" source="UBoLiEuFsDpJewt4Z_ZF-23" target="UBoLiEuFsDpJewt4Z_ZF-31">
          <mxGeometry relative="1" as="geometry" />
        </mxCell>
        <mxCell id="UBoLiEuFsDpJewt4Z_ZF-40" style="edgeStyle=orthogonalEdgeStyle;rounded=0;orthogonalLoop=1;jettySize=auto;html=1;fontSize=18;" edge="1" parent="1" source="UBoLiEuFsDpJewt4Z_ZF-23" target="UBoLiEuFsDpJewt4Z_ZF-34">
          <mxGeometry relative="1" as="geometry" />
        </mxCell>
        <mxCell id="UBoLiEuFsDpJewt4Z_ZF-23" value="&lt;font style=&quot;font-size: 18px;&quot;&gt;MergeIterator&lt;/font&gt;" style="rounded=1;whiteSpace=wrap;html=1;" vertex="1" parent="1">
          <mxGeometry x="-413" y="-670" width="240" height="60" as="geometry" />
        </mxCell>
        <mxCell id="UBoLiEuFsDpJewt4Z_ZF-28" value="SeekToFirst :minHeap&lt;br&gt;SeekToLast : maxHeap" style="text;html=1;strokeColor=none;fillColor=none;align=center;verticalAlign=middle;whiteSpace=wrap;rounded=0;fontSize=18;" vertex="1" parent="1">
          <mxGeometry x="-650" y="-811.25" width="210" height="122.5" as="geometry" />
        </mxCell>
        <mxCell id="UBoLiEuFsDpJewt4Z_ZF-30" value="&lt;font style=&quot;font-size: 18px;&quot;&gt;mem Iterator&lt;/font&gt;" style="rounded=1;whiteSpace=wrap;html=1;" vertex="1" parent="1">
          <mxGeometry x="-720" y="-510" width="240" height="60" as="geometry" />
        </mxCell>
        <mxCell id="UBoLiEuFsDpJewt4Z_ZF-31" value="&lt;font style=&quot;font-size: 18px;&quot;&gt;imm Iterator&lt;/font&gt;" style="rounded=1;whiteSpace=wrap;html=1;" vertex="1" parent="1">
          <mxGeometry x="-413" y="-510" width="240" height="60" as="geometry" />
        </mxCell>
        <mxCell id="UBoLiEuFsDpJewt4Z_ZF-34" value="&lt;font style=&quot;font-size: 18px;&quot;&gt;AddIteratorsForLevel&lt;/font&gt;" style="rounded=1;whiteSpace=wrap;html=1;" vertex="1" parent="1">
          <mxGeometry x="-100" y="-510" width="240" height="60" as="geometry" />
        </mxCell>
        <mxCell id="UBoLiEuFsDpJewt4Z_ZF-54" style="edgeStyle=orthogonalEdgeStyle;rounded=0;orthogonalLoop=1;jettySize=auto;html=1;fontSize=18;" edge="1" parent="1" source="UBoLiEuFsDpJewt4Z_ZF-35" target="UBoLiEuFsDpJewt4Z_ZF-43">
          <mxGeometry relative="1" as="geometry" />
        </mxCell>
        <mxCell id="UBoLiEuFsDpJewt4Z_ZF-35" value="&lt;span style=&quot;font-size: 18px;&quot;&gt;TableCache::NewIterator&lt;/span&gt;" style="rounded=1;whiteSpace=wrap;html=1;" vertex="1" parent="1">
          <mxGeometry x="-270" y="-370" width="240" height="60" as="geometry" />
        </mxCell>
        <mxCell id="UBoLiEuFsDpJewt4Z_ZF-72" style="edgeStyle=orthogonalEdgeStyle;rounded=0;orthogonalLoop=1;jettySize=auto;html=1;fontSize=18;" edge="1" parent="1" source="UBoLiEuFsDpJewt4Z_ZF-36" target="UBoLiEuFsDpJewt4Z_ZF-35">
          <mxGeometry relative="1" as="geometry" />
        </mxCell>
        <mxCell id="UBoLiEuFsDpJewt4Z_ZF-75" style="edgeStyle=orthogonalEdgeStyle;rounded=0;orthogonalLoop=1;jettySize=auto;html=1;fontSize=18;" edge="1" parent="1" source="UBoLiEuFsDpJewt4Z_ZF-36" target="UBoLiEuFsDpJewt4Z_ZF-73">
          <mxGeometry relative="1" as="geometry" />
        </mxCell>
        <mxCell id="UBoLiEuFsDpJewt4Z_ZF-36" value="&lt;span style=&quot;font-size: 18px;&quot;&gt;LevelIterator&lt;/span&gt;" style="rounded=1;whiteSpace=wrap;html=1;" vertex="1" parent="1">
          <mxGeometry x="70" y="-370" width="240" height="60" as="geometry" />
        </mxCell>
        <mxCell id="UBoLiEuFsDpJewt4Z_ZF-37" value="MemTable::NewIterator" style="text;html=1;strokeColor=none;fillColor=none;align=center;verticalAlign=middle;whiteSpace=wrap;rounded=0;fontSize=18;" vertex="1" parent="1">
          <mxGeometry x="-590" y="-430" width="270" height="30" as="geometry" />
        </mxCell>
        <mxCell id="UBoLiEuFsDpJewt4Z_ZF-55" style="edgeStyle=orthogonalEdgeStyle;rounded=0;orthogonalLoop=1;jettySize=auto;html=1;fontSize=18;" edge="1" parent="1" source="UBoLiEuFsDpJewt4Z_ZF-43" target="UBoLiEuFsDpJewt4Z_ZF-48">
          <mxGeometry relative="1" as="geometry" />
        </mxCell>
        <mxCell id="UBoLiEuFsDpJewt4Z_ZF-43" value="&lt;span style=&quot;font-size: 18px;&quot;&gt;BlockBasedTable::NewIterator&lt;/span&gt;" style="rounded=1;whiteSpace=wrap;html=1;" vertex="1" parent="1">
          <mxGeometry x="-270" y="-260" width="240" height="60" as="geometry" />
        </mxCell>
        <mxCell id="UBoLiEuFsDpJewt4Z_ZF-44" value="" style="endArrow=classic;html=1;rounded=0;fontSize=18;exitX=0.5;exitY=1;exitDx=0;exitDy=0;entryX=0.5;entryY=0;entryDx=0;entryDy=0;" edge="1" parent="1" source="UBoLiEuFsDpJewt4Z_ZF-34" target="UBoLiEuFsDpJewt4Z_ZF-35">
          <mxGeometry width="50" height="50" relative="1" as="geometry">
            <mxPoint x="-20" y="-110" as="sourcePoint" />
            <mxPoint x="30" y="-160" as="targetPoint" />
          </mxGeometry>
        </mxCell>
        <mxCell id="UBoLiEuFsDpJewt4Z_ZF-45" value="" style="endArrow=classic;html=1;rounded=0;fontSize=18;exitX=0.5;exitY=1;exitDx=0;exitDy=0;entryX=0.5;entryY=0;entryDx=0;entryDy=0;" edge="1" parent="1" source="UBoLiEuFsDpJewt4Z_ZF-34" target="UBoLiEuFsDpJewt4Z_ZF-36">
          <mxGeometry width="50" height="50" relative="1" as="geometry">
            <mxPoint x="-20" y="-110" as="sourcePoint" />
            <mxPoint x="30" y="-160" as="targetPoint" />
          </mxGeometry>
        </mxCell>
        <mxCell id="UBoLiEuFsDpJewt4Z_ZF-46" value="L0" style="text;html=1;strokeColor=none;fillColor=none;align=center;verticalAlign=middle;whiteSpace=wrap;rounded=0;fontSize=18;" vertex="1" parent="1">
          <mxGeometry x="-130" y="-430" width="60" height="30" as="geometry" />
        </mxCell>
        <mxCell id="UBoLiEuFsDpJewt4Z_ZF-47" value="L1...N" style="text;html=1;strokeColor=none;fillColor=none;align=center;verticalAlign=middle;whiteSpace=wrap;rounded=0;fontSize=18;" vertex="1" parent="1">
          <mxGeometry x="120" y="-430" width="60" height="30" as="geometry" />
        </mxCell>
        <mxCell id="UBoLiEuFsDpJewt4Z_ZF-56" style="edgeStyle=orthogonalEdgeStyle;rounded=0;orthogonalLoop=1;jettySize=auto;html=1;fontSize=18;" edge="1" parent="1" source="UBoLiEuFsDpJewt4Z_ZF-48" target="UBoLiEuFsDpJewt4Z_ZF-49">
          <mxGeometry relative="1" as="geometry" />
        </mxCell>
        <mxCell id="UBoLiEuFsDpJewt4Z_ZF-48" value="&lt;span style=&quot;font-size: 18px;&quot;&gt;NewInderIterator&lt;/span&gt;" style="rounded=1;whiteSpace=wrap;html=1;" vertex="1" parent="1">
          <mxGeometry x="-270" y="-150" width="240" height="60" as="geometry" />
        </mxCell>
        <mxCell id="UBoLiEuFsDpJewt4Z_ZF-53" style="edgeStyle=orthogonalEdgeStyle;rounded=0;orthogonalLoop=1;jettySize=auto;html=1;fontSize=18;" edge="1" parent="1" source="UBoLiEuFsDpJewt4Z_ZF-49" target="UBoLiEuFsDpJewt4Z_ZF-50">
          <mxGeometry relative="1" as="geometry" />
        </mxCell>
        <mxCell id="UBoLiEuFsDpJewt4Z_ZF-57" style="edgeStyle=orthogonalEdgeStyle;rounded=0;orthogonalLoop=1;jettySize=auto;html=1;fontSize=18;" edge="1" parent="1" source="UBoLiEuFsDpJewt4Z_ZF-49" target="UBoLiEuFsDpJewt4Z_ZF-51">
          <mxGeometry relative="1" as="geometry" />
        </mxCell>
        <mxCell id="UBoLiEuFsDpJewt4Z_ZF-58" style="edgeStyle=orthogonalEdgeStyle;rounded=0;orthogonalLoop=1;jettySize=auto;html=1;entryX=0.5;entryY=0;entryDx=0;entryDy=0;fontSize=18;" edge="1" parent="1" source="UBoLiEuFsDpJewt4Z_ZF-49" target="UBoLiEuFsDpJewt4Z_ZF-52">
          <mxGeometry relative="1" as="geometry" />
        </mxCell>
        <mxCell id="UBoLiEuFsDpJewt4Z_ZF-49" value="&lt;span style=&quot;font-size: 18px;&quot;&gt;index_reader::NewIterator&lt;/span&gt;" style="rounded=1;whiteSpace=wrap;html=1;" vertex="1" parent="1">
          <mxGeometry x="-270" y="-40" width="240" height="60" as="geometry" />
        </mxCell>
        <mxCell id="UBoLiEuFsDpJewt4Z_ZF-68" style="edgeStyle=orthogonalEdgeStyle;rounded=0;orthogonalLoop=1;jettySize=auto;html=1;fontSize=18;" edge="1" parent="1" source="UBoLiEuFsDpJewt4Z_ZF-50" target="UBoLiEuFsDpJewt4Z_ZF-67">
          <mxGeometry relative="1" as="geometry" />
        </mxCell>
        <mxCell id="UBoLiEuFsDpJewt4Z_ZF-50" value="&lt;span style=&quot;font-size: 18px;&quot;&gt;Partition&lt;/span&gt;" style="rounded=1;whiteSpace=wrap;html=1;" vertex="1" parent="1">
          <mxGeometry x="-270" y="70" width="240" height="60" as="geometry" />
        </mxCell>
        <mxCell id="UBoLiEuFsDpJewt4Z_ZF-51" value="&lt;span style=&quot;font-size: 18px;&quot;&gt;BinarySearch&lt;/span&gt;" style="rounded=1;whiteSpace=wrap;html=1;" vertex="1" parent="1">
          <mxGeometry x="-610" y="70" width="240" height="60" as="geometry" />
        </mxCell>
        <mxCell id="UBoLiEuFsDpJewt4Z_ZF-52" value="&lt;span style=&quot;font-size: 18px;&quot;&gt;HashIndex&lt;/span&gt;" style="rounded=1;whiteSpace=wrap;html=1;" vertex="1" parent="1">
          <mxGeometry x="70" y="70" width="240" height="60" as="geometry" />
        </mxCell>
        <mxCell id="UBoLiEuFsDpJewt4Z_ZF-59" value="index_block" style="rounded=0;whiteSpace=wrap;html=1;fontSize=18;" vertex="1" parent="1">
          <mxGeometry x="460" y="-40" width="270" height="30" as="geometry" />
        </mxCell>
        <mxCell id="UBoLiEuFsDpJewt4Z_ZF-60" value="index_block" style="rounded=0;whiteSpace=wrap;html=1;fontSize=18;" vertex="1" parent="1">
          <mxGeometry x="460" y="-10" width="270" height="30" as="geometry" />
        </mxCell>
        <mxCell id="UBoLiEuFsDpJewt4Z_ZF-61" value="index_block" style="rounded=0;whiteSpace=wrap;html=1;fontSize=18;" vertex="1" parent="1">
          <mxGeometry x="460" y="20" width="270" height="30" as="geometry" />
        </mxCell>
        <mxCell id="UBoLiEuFsDpJewt4Z_ZF-62" value="index_block" style="rounded=0;whiteSpace=wrap;html=1;fontSize=18;" vertex="1" parent="1">
          <mxGeometry x="460" y="50" width="270" height="30" as="geometry" />
        </mxCell>
        <mxCell id="UBoLiEuFsDpJewt4Z_ZF-63" value="index_block" style="rounded=0;whiteSpace=wrap;html=1;fontSize=18;" vertex="1" parent="1">
          <mxGeometry x="460" y="80" width="270" height="30" as="geometry" />
        </mxCell>
        <mxCell id="UBoLiEuFsDpJewt4Z_ZF-64" value="index_block handle" style="rounded=0;whiteSpace=wrap;html=1;fontSize=18;" vertex="1" parent="1">
          <mxGeometry x="460" y="110" width="270" height="30" as="geometry" />
        </mxCell>
        <mxCell id="UBoLiEuFsDpJewt4Z_ZF-66" value="Index BLock" style="text;html=1;strokeColor=none;fillColor=none;align=center;verticalAlign=middle;whiteSpace=wrap;rounded=0;fontSize=18;" vertex="1" parent="1">
          <mxGeometry x="480" y="-90" width="210" height="30" as="geometry" />
        </mxCell>
        <mxCell id="UBoLiEuFsDpJewt4Z_ZF-67" value="&lt;span style=&quot;font-size: 18px;&quot;&gt;NewTwoLevelIterator&lt;/span&gt;" style="rounded=1;whiteSpace=wrap;html=1;" vertex="1" parent="1">
          <mxGeometry x="-270" y="180" width="240" height="60" as="geometry" />
        </mxCell>
        <mxCell id="UBoLiEuFsDpJewt4Z_ZF-69" value="only set first_level" style="text;html=1;strokeColor=none;fillColor=none;align=center;verticalAlign=middle;whiteSpace=wrap;rounded=0;fontSize=18;" vertex="1" parent="1">
          <mxGeometry x="-235" y="250" width="170" height="30" as="geometry" />
        </mxCell>
        <mxCell id="UBoLiEuFsDpJewt4Z_ZF-71" value="&lt;span style=&quot;font-size: 18px;&quot;&gt;TwoLevelIterator::Seek&lt;br&gt;InitDataBlock&lt;br&gt;&lt;/span&gt;" style="rounded=1;whiteSpace=wrap;html=1;" vertex="1" parent="1">
          <mxGeometry x="-270" y="290" width="240" height="60" as="geometry" />
        </mxCell>
        <mxCell id="UBoLiEuFsDpJewt4Z_ZF-73" value="&lt;span style=&quot;font-size: 18px;&quot;&gt;storage_info.LevelFilesBrief&lt;/span&gt;" style="rounded=1;whiteSpace=wrap;html=1;" vertex="1" parent="1">
          <mxGeometry x="70" y="-260" width="240" height="60" as="geometry" />
        </mxCell>
        <mxCell id="UBoLiEuFsDpJewt4Z_ZF-76" value="SST file search in level" style="text;html=1;strokeColor=none;fillColor=none;align=center;verticalAlign=middle;whiteSpace=wrap;rounded=0;fontSize=18;" vertex="1" parent="1">
          <mxGeometry x="65" y="-190" width="250" height="30" as="geometry" />
        </mxCell>
        <mxCell id="UBoLiEuFsDpJewt4Z_ZF-78" value="&lt;span style=&quot;font-size: 18px;&quot;&gt;Block::NewIterator&lt;br&gt;IndexBlockIter&lt;br&gt;&lt;/span&gt;" style="rounded=1;whiteSpace=wrap;html=1;" vertex="1" parent="1">
          <mxGeometry x="-270" y="390" width="240" height="60" as="geometry" />
        </mxCell>
      </root>
    </mxGraphModel>
  </diagram>
</mxfile>
